<?xml version="1.0" encoding="utf-8"?>
<!-- Generator: Adobe Illustrator 26.0.3, SVG Export Plug-In . SVG Version: 6.00 Build 0)  -->
<svg version="1.1" id="Calque_1" xmlns="http://www.w3.org/2000/svg" xmlns:xlink="http://www.w3.org/1999/xlink" x="0px" y="0px"
	 viewBox="0 0 1420.4 794" style="enable-background:new 0 0 1420.4 794;" xml:space="preserve">
<style type="text/css">
	.st0{fill:#190A28;}
	.st1{clip-path:url(#SVGID_00000170973613544340730590000007200792863213135024_);}
	.st2{fill:url(#Union_88_00000142891133083797424800000016677577636306024630_);}
	.st3{fill:url(#Rectangle_3404_00000082366500907487977240000017676497799373993135_);}
	.st4{fill:url(#Rectangle_3405_00000051378973025598614590000011598400296256503714_);}
	.st5{fill:url(#Path_8100_00000018953250564808135440000006573181976772593576_);}
</style>
<g id="Group_5297" transform="translate(18962 19549)">
	<rect id="Rectangle_3234" x="-18986.6" y="-19549" class="st0" width="1512" height="794"/>
	<g id="Group_4919" transform="translate(-17550.93 -18755) rotate(180)">
		<g>
			<g>
				<defs>
					<rect id="SVGID_1_" x="24.6" y="0" width="1387.3" height="794"/>
				</defs>
				<clipPath id="SVGID_00000088815368367326926500000013255764911358995105_">
					<use xlink:href="#SVGID_1_"  style="overflow:visible;"/>
				</clipPath>
				
					<g id="Group_4320" transform="translate(0)" style="clip-path:url(#SVGID_00000088815368367326926500000013255764911358995105_);">
					<g id="Group_4319" transform="translate(-25.001)">
						
							<linearGradient id="Union_88_00000057839205485046021800000014877074884238721201_" gradientUnits="userSpaceOnUse" x1="59.7706" y1="-443.3417" x2="59.7736" y2="-442.3417" gradientTransform="matrix(1412.317 0 0 794.43 -83682.1484 352204.1562)">
							<stop  offset="0" style="stop-color:#000000"/>
							<stop  offset="0.709" style="stop-color:#321450"/>
							<stop  offset="1" style="stop-color:#321450"/>
						</linearGradient>
						<path id="Union_88" style="fill:url(#Union_88_00000057839205485046021800000014877074884238721201_);" d="M1296.5,794.4
							l140.4-432.2v60.7l-120.7,371.5H1296.5z M1178.8,794.4L1436.9,0v60.7l-238.4,733.7H1178.8z M1119.9,794.4L1378.1,0h19.7
							l-258.1,794.4H1119.9z M1061.1,794.4L1319.2,0h19.7l-258.1,794.4H1061.1z M1002.2,794.4L1260.4,0h19.7L1022,794.4H1002.2z
							 M943.4,794.4L1201.5,0h19.7L963.1,794.4H943.4z M884.6,794.4L1142.7,0h19.7L904.3,794.4H884.6z M825.7,794.4L1083.8,0h19.7
							L845.4,794.4H825.7z M766.9,794.4L1025,0h19.7L786.6,794.4H766.9z M708,794.4L966.1,0h19.7L727.7,794.4H708z M649.2,794.4
							L907.3,0H927L668.9,794.4H649.2z M590.3,794.4L848.4,0h19.7L610,794.4H590.3z M531.5,794.4L789.6,0h19.7L551.2,794.4H531.5z
							 M472.6,794.4L730.8,0h19.7L492.4,794.4H472.6z M413.8,794.4L671.9,0h19.7L433.5,794.4H413.8z M354.9,794.4L613.1,0h19.7
							L374.7,794.4H354.9z M296.1,794.4L554.2,0h19.7L315.8,794.4H296.1z M237.2,794.4L495.4,0h19.7L257,794.4H237.2z M178.4,794.4
							L436.5,0h19.7L198.1,794.4H178.4z M119.6,794.4L377.7,0h19.7L139.3,794.4H119.6z M60.7,794.4L318.8,0h19.8L80.4,794.4H60.7z
							 M1433.9,794.4l3-9.3v9.3H1433.9z M1414.2,794.4l22.7-70v60.7l-3,9.3H1414.2z M1355.3,794.4l81.6-251.1V604L1375,794.4H1355.3
							z M1237.6,794.4l199.3-613.3v60.7l-179.6,552.6H1237.6z M24.6,724.4L260,0h19.7L24.6,785.1V724.4z M24.6,543.3L201.1,0h19.7
							L24.6,604V543.3z M24.6,362.2L142.3,0H162L24.6,422.9V362.2z M24.6,181.1L83.4,0h19.7L24.6,241.8V181.1z M24.6,0h19.7
							L24.6,60.7V0z"/>
					</g>
				</g>
			</g>
		</g>
	</g>
	
		<linearGradient id="Rectangle_3404_00000104668152294037249700000000731875855029267114_" gradientUnits="userSpaceOnUse" x1="-37064.7266" y1="394.197" x2="-37064.7266" y2="395.197" gradientTransform="matrix(1513 0 0 193 56060704 -95629.0234)">
		<stop  offset="0" style="stop-color:#000000"/>
		<stop  offset="1" style="stop-color:#000000;stop-opacity:0"/>
	</linearGradient>
	
		<rect id="Rectangle_3404" x="-18986.6" y="-19549" style="fill:url(#Rectangle_3404_00000104668152294037249700000000731875855029267114_);" width="1513" height="193"/>
	
		<linearGradient id="Rectangle_3405_00000152245223428508772160000008632560283618787223_" gradientUnits="userSpaceOnUse" x1="-37064.7266" y1="394.197" x2="-37064.7266" y2="395.197" gradientTransform="matrix(1513 0 0 193 56060704 -95029.0234)">
		<stop  offset="0" style="stop-color:#190A28;stop-opacity:0"/>
		<stop  offset="1" style="stop-color:#190A28"/>
	</linearGradient>
	
		<rect id="Rectangle_3405" x="-18986.6" y="-18949" style="fill:url(#Rectangle_3405_00000152245223428508772160000008632560283618787223_);" width="1513" height="193"/>
	
		<linearGradient id="Path_8100_00000057843392048335631730000010571938064551471274_" gradientUnits="userSpaceOnUse" x1="-37065.8086" y1="395.6374" x2="-37066.5039" y2="396.6374" gradientTransform="matrix(385.132 0 0 794 14257740 -333624.6562)">
		<stop  offset="0" style="stop-color:#321450"/>
		<stop  offset="1" style="stop-color:#190A28"/>
	</linearGradient>
	<path id="Path_8100" style="fill:url(#Path_8100_00000057843392048335631730000010571938064551471274_);" d="M-17666.3-19549
		l127.9,0.2v793.8h-385.1L-17666.3-19549z"/>
</g>
</svg>
