<?xml version="1.0" encoding="UTF-8" standalone="no"?>
<svg
   xmlns:dc="http://purl.org/dc/elements/1.1/"
   xmlns:cc="http://creativecommons.org/ns#"
   xmlns:rdf="http://www.w3.org/1999/02/22-rdf-syntax-ns#"
   xmlns:svg="http://www.w3.org/2000/svg"
   xmlns="http://www.w3.org/2000/svg"
   xmlns:sodipodi="http://sodipodi.sourceforge.net/DTD/sodipodi-0.dtd"
   xmlns:inkscape="http://www.inkscape.org/namespaces/inkscape"
   version="1.1"
   width="507"
   height="600"
   id="svg2"
   inkscape:version="0.91 r13725"
   viewBox="0 0 507 600"
   sodipodi:docname="Logo US Concarneau.cdr.svg">
  <metadata
     id="metadata73">
    <rdf:RDF>
      <cc:Work
         rdf:about="">
        <dc:format>image/svg+xml</dc:format>
        <dc:type
           rdf:resource="http://purl.org/dc/dcmitype/StillImage" />
        <dc:title></dc:title>
      </cc:Work>
    </rdf:RDF>
  </metadata>
  <defs
     id="defs71" />
  <sodipodi:namedview
     pagecolor="#ffffff"
     bordercolor="#666666"
     borderopacity="1"
     objecttolerance="10"
     gridtolerance="10"
     guidetolerance="10"
     inkscape:pageopacity="0"
     inkscape:pageshadow="2"
     inkscape:window-width="1280"
     inkscape:window-height="691"
     id="namedview69"
     showgrid="false"
     inkscape:zoom="0.61867883"
     inkscape:cx="297.63779"
     inkscape:cy="420.94489"
     inkscape:window-x="0"
     inkscape:window-y="1"
     inkscape:window-maximized="1"
     inkscape:current-layer="svg2" />
  <g
     id="Layer1000"
     transform="matrix(1.0583318,0,0,1.0583318,-61.886628,-145.49876)">
    <defs
       id="defs5">
      <linearGradient
         id="grad1"
         gradientTransform="scale(0.91853821,1.0886863)"
         x1="63.661629"
         y1="126.28004"
         x2="584.40845"
         y2="126.28004"
         gradientUnits="userSpaceOnUse">
        <stop
           offset="201392128.0000%"
           stop-color="#005fa7"
           stop-opacity="1.0000"
           id="stop8" />
        <stop
           offset="201392160.0000%"
           stop-color="#0064aa"
           stop-opacity="1.0000"
           id="stop10" />
        <stop
           offset="201392201.0000%"
           stop-color="#3c8ec5"
           stop-opacity="1.0000"
           id="stop12" />
        <stop
           offset="100.0000%"
           stop-color="#4595c9"
           stop-opacity="1.0000"
           id="stop14" />
      </linearGradient>
    </defs>
    <path
       d="m 69.1876,167.1585 c 73.5067,-18.8704 152.8465,-29.5707 230.0577,-29.6783 75.2256,-0.1049 150.4637,9.574 227.0647,29.9206 8.0237,42.5347 10.7817,82.9624 10.4677,121.9511 -1.3005,161.4639 -66.8276,326.65 -239.7559,415.0574 C 136.1235,618.6632 59.2792,468.1993 58.4817,285.1921 58.3213,248.3813 61.3303,207.0544 69.1876,167.1585 Z"
       style="fill:url(#grad1)"
       id="path16"
       inkscape:connector-curvature="0" />
    <path
       d="m 437.4925,462.8382 c 9.6193,-33.5364 13.5984,-69.6915 13.9652,-107.6922 0.2428,-25.1487 -2.0005,-50.0321 -7.3665,-74.5351 -52.172,-14.0599 -97.7293,-19.1609 -146.9511,-19.0923 -49.2759,0.0688 -97.7959,5.9645 -146.3935,19.3182 -5.0663,23.7251 -8.4616,48.2375 -8.3589,72.2631 0.0899,21.0071 1.2121,41.484 4.178,61.2705 2.6327,17.5627 6.6912,34.4267 12.0754,50.6316 l 5.5001,-1.9324 c -5.3314,-16.061 -9.2809,-32.596 -11.8242,-49.5613 -2.9943,-19.9753 -4.0275,-40.2506 -4.1138,-60.4334 -0.0969,-22.626 2.9395,-45.3932 7.5035,-67.5574 46.3201,-12.3877 93.5096,-18.1165 141.4414,-18.1834 14.9367,-0.0208 29.867,0.4439 44.7649,1.5365 33.0733,2.4258 65.2133,8.0167 97.2326,16.4414 4.7328,22.9309 6.7229,46.3747 6.4969,69.7777 -0.3497,36.2358 -3.9985,72.4284 -13.9035,106.6779 l 5.7535,1.0706 z"
       style="fill:#ffffff;fill-rule:evenodd"
       id="path18"
       inkscape:connector-curvature="0" />
    <path
       d="m 297.1461,692.9532 c 64.334,-35.7334 113.77,-79.2819 149.5492,-129.9484 54.7579,-77.5414 78.1853,-171.1082 79.1787,-273.7603 0.3609,-37.2847 -3.7587,-74.1318 -10.9205,-110.8526 -70.5997,-18.86 -142.7213,-27.6862 -215.6895,-27.5845 -73.0483,0.1018 -149.0025,9.3136 -220.2528,27.9198 -6.3205,35.1708 -10.7485,70.7891 -10.5949,106.4067 0.1345,31.1441 1.7963,61.4967 6.1935,90.8297 8.3952,55.9993 25.4834,108.2866 51.9697,155.2798 37.0148,65.6739 95.6301,121.0141 170.5666,161.7098 z m -0.0307,-6.6456 c 56.7255,-31.9279 107.0813,-73.2026 144.8294,-126.6574 56.2186,-79.6095 77.1813,-174.0964 78.114,-270.4619 0.3445,-35.6105 -3.5029,-71.1477 -10.1263,-106.1096 -68.8533,-18.0511 -139.4919,-26.5551 -210.6605,-26.4558 -71.9142,0.1001 -145.4364,8.9302 -215.1887,26.7991 -5.8969,33.5587 -9.9986,67.5778 -9.8515,101.6867 0.1297,30.0563 1.67,60.2456 6.1293,89.9927 8.0613,53.7717 24.5342,105.8247 51.2846,153.2866 38.2875,67.932 97.6564,120.5474 165.4697,157.9196 z"
       style="fill:#ffffff;fill-rule:evenodd"
       id="path20"
       inkscape:connector-curvature="0" />
    <g
       id="Layer1001">
      <path
         d="m 174.3064,514.1031 91.4645,0.5855 0,5.0827 2.7256,0 0,-4.255 15.4906,0.2927 23.8087,-0.3179 1.0737,-13.1171 5.2277,-0.7643 -0.0647,-0.5496 14.0597,-0.0758 1.3056,-0.3397 -3e-4,-21.1101 -0.5927,-0.0284 -0.7441,-2.402 -2.6926,-1.089 -0.0751,-0.5597 c 5.8974,-1.6044 8.4429,-5.1993 14.3624,-14.0508 l 0.0385,-13.2785 c 0.0116,-0.3075 0.2721,-0.1303 0.2835,-0.4337 0.1716,-4.5713 0.5028,-9.8568 3.3309,-13.3886 0.1902,-2.9727 0.849,-5.4309 3.7842,-6.7712 l 0.5624,0.3499 c 6.311,-3.2816 7.2558,-8.7232 7.4908,-15.1838 -0.0644,-0.2355 -0.7991,-0.9409 -0.9072,-1.6191 -0.108,-0.6778 0.409,-1.4638 0.9736,-1.592 l -7e-4,-12.9887 -1.6724,-1.4551 c 1.2537,-2.0674 1.4701,-4.3049 2.8636,-7.1417 1.0841,-2.2063 3.5504,-4.9774 6.3661,-7.7763 0.2956,-4.0311 0.368,-7.9544 0.502,-12.0313 0.2947,-8.9702 -0.0249,-18.175 0.0342,-27.2898 l -0.4512,-0.2467 0.1842,-2.696 1.6046,-0.3373 c 0.2156,14.5221 1.167,28.3061 1.9649,43.5657 1.9722,1.1762 4.3209,4.5439 5.983,7.7199 1.1369,2.1726 1.7262,5.4651 3.1335,7.1654 l 0.003,1.2307 -0.9438,0.4847 -3e-4,12.7868 c 0.8884,1.5809 0.8527,3.0062 -0.5103,4.1615 0.5128,3.4108 1.0255,6.0188 1.9398,9.0281 2.0506,0.7127 4.8884,1.0487 6.9388,0.8891 l 0.7301,1.1226 c 1.8547,1.1333 3.5468,5.8061 3.1717,11.5651 1.7182,3.3873 2.8207,10.3461 3.4299,15.1817 1.252,1.8003 3.7227,4.4202 5.5044,6.4397 1.3,1.4735 2.2608,2.8762 3.632,4.0667 3.0476,2.6461 5.1167,3.4341 10.1474,5.3459 l 0.2028,0.6911 -1.6141,1.3773 1.3631,1.6153 -2.2158,1.5733 0.0756,9.9298 25.4194,7.8129 -10.9814,31.7238 -28.7088,37.9698 -20.7262,10.1156 -54.4308,14.02 -50.4603,-1.529 -24.114,-3.2734 -60.3695,-41.161 -8.4492,-10.995 -3.0233,-9.781 2.5721,-4.2647 z M 370.3841,398.6855 c -0.3853,0.6351 -0.5871,1.4263 -0.5871,2.0846 l -3e-4,7.3341 1.4963,0.8505 0,-6.5073 c 0,-1.0298 -0.2968,-2.6218 -0.9089,-3.7619 z m -10.3865,10.0875 5.879,-0.7398 0,-7.4315 c 0,-1.9806 -1.5518,-3.9136 -3.2223,-5.0481 -1.2242,1.0349 -2.6562,2.4367 -2.6562,3.9039 l -5e-4,9.3155 z m 22.7021,19.4786 c 1.1982,0 2.1701,3.7571 2.1701,8.3898 0,4.6328 -0.9719,8.3899 -2.1701,8.3899 -1.1983,0 -2.1702,-3.7571 -2.1702,-8.3899 0,-4.6327 0.9719,-8.3898 2.1702,-8.3898 z m -24.8788,-1.7388 c 4.3003,0 7.7879,3.727 7.7879,8.3229 0,4.596 -3.4876,8.323 -7.7879,8.323 -4.3004,0 -7.788,-3.727 -7.788,-8.323 0,-4.5959 3.4876,-8.3229 7.788,-8.3229 z"
         style="fill:#ffffff;fill-rule:evenodd"
         id="path23"
         inkscape:connector-curvature="0" />
      <path
         d="m 347.0389,429.3544 c -1.7114,1.1282 -2.0243,2.9477 -2.1588,5.05 l -0.0317,0.496 -0.3106,0.388 c -2.5882,3.2319 -2.8366,8.4693 -2.9866,12.4631 -0.013,0.3499 -0.1114,0.6644 -0.2839,0.9298 l -0.0383,13.2036 -0.2644,0.3952 c -1.8067,2.7018 -3.6444,5.5151 -5.6873,8.0424 -1.5285,1.891 -3.2017,3.6104 -5.2997,4.8712 -0.3397,0.2043 -0.685,0.393 -1.0356,0.5677 l 0.402,0.1626 0.6387,2.0616 0.9899,0.0473 2e-4,23.8293 -2.6749,0.6962 -12.4953,0.0673 0.0378,0.3209 -5.5032,0.8047 -1.0885,13.2957 -25.266,0.3373 -13.9112,-0.2629 0,4.225 -5.8756,0 0,-5.0927 -89.0036,-0.5697 -2.8348,4.7001 1.0635,3.4409 13.9585,18.1638 53.2861,36.3314 42.0985,5.7147 35.3865,1.0723 46.8268,-12.0614 30.4301,-14.8516 26.6089,-35.1924 10.4658,-30.2346 -26.4701,-8.1359 -0.0906,-11.9048 1.489,-1.0575 -1.269,-1.5035 1.2814,-1.0934 c -3.3117,-1.2716 -5.9066,-2.4069 -8.836,-4.9504 -1.4492,-1.2581 -2.5217,-2.7871 -3.7805,-4.2141 -1.8518,-2.0989 -4.0283,-4.2986 -5.6164,-6.5824 l -0.2212,-0.3179 -0.0485,-0.3846 c -0.2614,-2.0744 -0.5619,-4.1474 -0.9324,-6.2054 -0.3705,-2.0577 -0.8946,-4.7658 -1.6955,-6.9548 -0.4572,4.1287 -1.8929,7.1438 -3.5927,7.1438 -2.0682,0 -3.7452,-4.4624 -3.7452,-9.9649 0,-5.4602 1.6513,-9.8958 3.6977,-9.9634 l -0.3305,-0.5081 c -2.1668,0.0329 -4.6937,-0.3431 -6.6263,-1.0146 l -0.757,-0.2631 -0.2329,-0.767 c -0.9331,-3.0713 -1.5132,-6.0789 -1.9904,-9.2517 l -0.1303,-0.868 0.6695,-0.5675 c 0.7948,-0.6739 0.6346,-1.3361 0.1556,-2.1886 l -0.2019,-0.3593 3e-4,-14.1608 0.8127,-0.4172 c -1.3192,-2.0263 -1.7246,-4.6668 -2.8261,-6.7715 -1.0604,-2.0262 -3.4118,-5.9151 -5.3942,-7.0973 l -0.7223,-0.4309 -0.0439,-0.8398 c -0.1221,-2.3362 -0.2503,-4.6718 -0.3801,-7.0077 -0.073,2.0267 -0.1665,4.0524 -0.3148,6.076 l -0.0431,0.5871 -0.4175,0.4148 c -1.9516,1.9402 -4.8492,4.8844 -6.0627,7.3538 -0.9574,1.9486 -1.4178,4.1275 -2.3064,6.0743 l 1.2765,1.1105 8e-4,14.9638 -0.9324,0.2115 c 0.2037,0.3865 0.6503,0.7425 0.81,1.3262 l 0.0637,0.2324 -0.009,0.2406 c -0.259,7.1175 -1.4941,12.9652 -8.3382,16.5241 l -0.7965,0.4141 -0.5462,-0.3397 z m 21.1828,-20.3337 4.6463,2.6409 0,-9.2142 c 0,-2.1311 -0.8405,-4.8932 -2.3538,-6.0547 -1.2433,0.6994 -2.2923,2.4181 -2.2923,4.3774 l -2e-4,8.2506 z m -9.7992,1.5379 9.0291,-1.1362 0,-8.8207 c 0,-2.5004 -1.9382,-5.4484 -4.9492,-6.9631 -2.2077,1.8055 -4.0794,3.5186 -4.0794,5.8189 l -5e-4,11.1011 z m -0.6016,14.3791 c 5.17,0 9.363,4.4324 9.363,9.898 0,5.4656 -4.193,9.898 -9.363,9.898 -5.17,0 -9.363,-4.4324 -9.363,-9.898 0,-5.4656 4.193,-9.898 9.363,-9.898 z"
         style="fill:#005da6;fill-rule:evenodd"
         id="path25"
         inkscape:connector-curvature="0" />
    </g>
    <path
       d="m 218.68,352.1934 72.2607,-8.4563 0.4202,-17.1611 -6.7884,0 1.9429,-13.1004 c -9.1677,-4.0847 -15.5609,-13.2756 -15.5609,-23.958 0,-14.4762 11.7401,-26.2163 26.2164,-26.2163 14.4762,0 26.2163,11.7401 26.2163,26.2163 0,10.6131 -6.3103,19.7551 -15.3828,23.8788 l 2.199,13.1796 -7.1063,0 0.4195,17.1342 71.9975,8.4832 0,16.5933 -65.7955,7.9317 5.8416,150.4134 c 0.3427,8.8246 1.2434,17.1921 5.6304,25.1468 2.1467,3.892 4.9716,7.164 8.7614,9.9683 5.6204,4.1586 12.8006,6.0815 20.0746,5.4346 23.219,-2.0657 45.8983,-19.4338 59.1608,-39.4045 7.2372,-10.898 13.2451,-25.4705 15.5008,-36.4861 l -13.3001,-3.0512 c 9.5413,-13.7323 19.6623,-28.5348 27.5539,-44.4072 8.7054,14.7687 14.295,33.7731 13.8603,53.9369 l -14.1278,-3.4021 c -3.766,18.655 -8.1984,29.9652 -17.441,43.3785 -15.7472,22.8535 -39.6107,39.2072 -65.292,49.0793 -14.4075,5.5383 -29.688,9.7763 -40.6243,16.3874 -7.8238,4.7294 -13.3107,10.9671 -17.6305,18.6503 -3.0662,-6.4591 -10.8978,-14.5208 -17.7293,-18.6503 -10.9363,-6.6111 -26.2168,-10.8491 -40.6243,-16.3874 -25.6813,-9.8721 -49.5448,-26.2258 -65.292,-49.0793 -9.2425,-13.4133 -13.6749,-24.7235 -17.441,-43.3785 l -14.1278,3.4021 c -0.4347,-20.1638 4.6703,-39.1682 13.3757,-53.9369 7.8916,15.8724 18.4972,30.6749 28.0385,44.4072 l -13.5424,3.0512 c 2.2557,11.0156 8.5057,25.5881 15.7431,36.4861 13.2625,19.971 35.9419,37.3388 59.1608,39.4045 7.274,0.6469 14.4542,-1.2758 20.0747,-5.4346 3.7956,-2.8084 6.6226,-6.0857 8.7705,-9.9853 4.3061,-7.8184 4.924,-15.4382 5.2478,-24.0566 l 5.6914,-151.4246 -66.3524,-7.9937 0,-16.5933 z m 68.96,-46.299 0.8095,-5.4591 17.3923,0 0.9062,5.4317 c 5.6052,-3.2911 9.3698,-9.3812 9.3698,-16.3494 0,-10.4623 -8.4846,-18.9469 -18.9469,-18.9469 -10.4624,0 -18.947,8.4846 -18.947,18.9469 0,6.9876 3.7854,13.0922 9.4161,16.3768 z"
       style="fill:#e3001f;fill-rule:evenodd"
       id="path27"
       inkscape:connector-curvature="0" />
    <path
       d="m 362.7687,380.1258 c 0.2956,-4.0311 0.368,-7.9544 0.502,-12.0313 0.2947,-8.9702 -0.0249,-18.175 0.0342,-27.2898 l -0.4512,-0.2467 0.1842,-2.696 1.6046,-0.3373 c 0.2156,14.5221 1.167,28.3061 1.9649,43.5657 l -3.8387,-0.9646 z"
       style="fill:#ffffff;fill-rule:evenodd"
       id="path29"
       inkscape:connector-curvature="0" />
    <g
       id="Layer1002">
      <path
         d="m 314.2326,219.0601 c 0.004,5.9057 -3.2424,9.8484 -9.2711,9.8522 -6.086,0.004 -9.6738,-3.7998 -9.6776,-9.8404 l -0.0121,-19.5094 c -0.004,-6.5223 3.4538,-10.3983 9.5952,-10.4021 6.0896,-0.004 9.3495,4.0309 9.3533,10.1481 l 10e-4,2.0633 -6.5686,0.004 -10e-4,-1.9424 c -0.001,-1.787 -0.8229,-3.5028 -2.5693,-3.5017 -2.0395,0.001 -3.0012,1.2941 -3,3.2629 l 0.0121,19.5224 c 0.001,1.9923 0.7094,3.3183 2.7599,3.317 2.08,-0.001 2.8103,-1.4982 2.8092,-3.3204 l -0.002,-2.6303 6.5686,-0.004 0.002,2.9809 z"
         style="fill:#ffffff;fill-rule:evenodd"
         id="path32"
         inkscape:connector-curvature="0" />
      <path
         d="m 230.7534,222.9507 c 0.6952,5.8641 -2.0666,10.1604 -8.0534,10.8702 -6.0436,0.7166 -9.7751,-2.6734 -10.4863,-8.6721 l -2.297,-19.3736 c -0.7679,-6.477 2.2121,-10.7313 8.3108,-11.4544 6.0473,-0.717 9.4801,2.9415 10.2003,9.0156 l 0.2715,2.2896 -6.523,0.7734 -0.2572,-2.1695 c -0.2104,-1.7746 -1.2275,-3.3824 -2.9617,-3.1768 -2.0253,0.2402 -2.5517,1.6041 -2.32,3.559 l 2.2986,19.3866 c 0.2346,1.9782 0.8159,3.2453 2.8521,3.0038 2.0656,-0.2449 2.6156,-1.8171 2.4011,-3.6266 l -0.2812,-2.3714 6.5229,-0.7734 0.3225,2.7196 z"
         style="fill:#ffffff;fill-rule:evenodd"
         id="path34"
         inkscape:connector-curvature="0" />
      <path
         d="m 258.1764,220.5678 c 0.4532,5.8875 -2.7687,10.0887 -8.8556,10.5573 -6.1447,0.473 -10.0197,-3.0457 -10.4834,-9.0685 l -1.4975,-19.4518 c -0.5006,-6.5031 2.9403,-10.6533 9.141,-11.1307 6.1484,-0.4733 9.7099,3.3019 10.1794,9.4003 l 1.5161,19.6934 z m -8.1388,-19.0623 c -0.1372,-1.7817 -1.3422,-3.4104 -3.1054,-3.2746 -2.0593,0.1585 -2.8946,1.5196 -2.7435,3.4819 l 1.4985,19.4648 c 0.1528,1.9857 0.9317,3.2568 3.0019,3.0975 2.1001,-0.1617 2.9682,-1.7295 2.8284,-3.5463 l -1.4799,-19.2233 z"
         style="fill:#ffffff;fill-rule:evenodd"
         id="path36"
         inkscape:connector-curvature="0" />
      <path
         d="m 474.381,241.7668 c -1.5262,5.7007 -5.8729,8.6208 -11.6184,7.0827 -5.7998,-1.5527 -8.1975,-6.1343 -6.6354,-11.9695 l 7.627,-28.4896 6.7249,1.8003 -7.5363,28.1509 c -0.4055,1.5145 -0.2919,3.2511 1.6621,3.7742 1.9823,0.5307 2.9015,-0.6661 3.3727,-2.4263 l 7.5363,-28.1509 6.4941,1.7385 -7.627,28.4897 z"
         style="fill:#ffffff;fill-rule:evenodd"
         id="path38"
         inkscape:connector-curvature="0" />
      <path
         d="m 140.8947,238.197 c 1.554,5.6925 -0.7007,10.5256 -6.395,12.2426 -4.7397,1.429 -10.2437,-1.4387 -11.8345,-7.2661 l -7.767,-28.4518 6.7159,-1.8334 7.6746,28.1136 c 0.4128,1.5121 1.5084,3.2507 3.519,2.6884 1.9598,-0.548 1.9891,-2.3032 1.5092,-4.0611 l -7.6746,-28.1135 6.4854,-1.7705 7.767,28.4518 z"
         style="fill:#ffffff;fill-rule:evenodd"
         id="path40"
         inkscape:connector-curvature="0" />
      <path
         d="m 404.043,236.2766 6.3943,-38.7002 17.5005,2.8916 -1.078,6.5245 -10.6148,-1.7538 -1.5476,9.3663 9.4097,1.5547 -1.1019,6.6688 -9.4096,-1.5547 -1.5491,9.3754 10.6265,1.7558 -1.1178,6.7651 -17.5122,-2.8935 z"
         style="fill:#ffffff;fill-rule:evenodd"
         id="path42"
         inkscape:connector-curvature="0" />
      <path
         d="m 375.6327,232.329 4.801,-38.6438 6.5353,0.8119 4.5708,19.9643 2.4145,-19.0964 6.7289,0.8359 -4.801,38.6439 -6.5051,-0.8082 -4.4194,-20.5962 -2.4391,19.7441 -6.8859,-0.8555 z"
         style="fill:#ffffff;fill-rule:evenodd"
         id="path44"
         inkscape:connector-curvature="0" />
      <path
         d="m 267.0379,229.4373 -1.3528,-38.9174 6.5816,-0.2288 7.6618,18.9937 -0.6271,-19.2383 6.7765,-0.2355 1.3529,38.9174 -6.5511,0.2277 -7.612,-19.6415 0.7049,19.8816 -6.9347,0.2411 z"
         style="fill:#ffffff;fill-rule:evenodd"
         id="path46"
         inkscape:connector-curvature="0" />
      <path
         d="m 319.4471,228.7157 10.4246,-38.7556 5.7003,0.2312 7.1645,39.4691 -6.9075,-0.2802 -1.1815,-8.261 -6.388,-0.2591 -1.8396,8.1385 -6.9728,-0.2829 z m 10.2209,-14.1211 4.0142,0.1628 -1.6018,-10.3897 -2.4124,10.2269 z"
         style="fill:#ffffff;fill-rule:evenodd"
         id="path48"
         inkscape:connector-curvature="0" />
      <path
         d="m 425.4059,240.0788 16.724,-36.4826 5.5825,1.1759 0.5016,40.1109 -6.7648,-1.4249 0.2087,-8.3424 -6.256,-1.3178 -3.1673,7.7193 -6.8287,-1.4384 z m 12.4267,-12.2249 3.9312,0.8281 0.1483,-10.5115 -4.0795,9.6834 z"
         style="fill:#ffffff;fill-rule:evenodd"
         id="path50"
         inkscape:connector-curvature="0" />
      <path
         d="m 357.4196,208.546 2.1898,0.1946 c 1.6411,0.1457 2.757,-0.5796 3.3558,-1.8405 0.7224,-1.5213 0.8829,-4.3282 0.6302,-5.9338 -0.2078,-1.3215 -0.9227,-2.3313 -2.8692,-2.5011 l -2.492,-0.2173 -0.8146,10.2981 z m -8.6749,21.4886 3.0794,-38.93 10.7013,0.8465 c 2.6808,0.212 4.8057,1.54 6.1229,3.4084 1.9257,2.7308 2.3235,6.6339 1.8323,10.0265 -0.3791,2.6163 -1.3095,6.5713 -5.2644,8.072 l 4.5473,18.2392 -7.3442,-0.5809 -3.7682,-16.4812 -1.7007,-0.1569 -1.2739,16.1047 -6.9318,-0.5483 z"
         style="fill:#ffffff;fill-rule:evenodd"
         id="path52"
         inkscape:connector-curvature="0" />
      <path
         d="m 174.861,223.5871 c -1.9274,-0.4025 -3.8598,-0.7854 -5.6948,-1.5469 -4.3788,-1.8169 -5.0792,-7.4507 -5.3336,-9.1044 -0.6486,-4.2159 0.5981,-7.5803 2.9439,-9.7872 1.3389,-1.2598 3.3773,-1.9142 5.4656,-2.2251 5.4024,-0.8041 9.9657,2.8446 10.9479,8.8813 l 0.3704,2.2759 -6.7367,1.0027 -0.3217,-2.1609 c -0.2939,-1.9749 -1.5897,-3.1804 -3.3309,-3.0462 -1.9689,0.1517 -2.9348,1.5282 -2.7766,3.3567 0.1061,1.2243 0.1744,2.3237 0.6221,3.2328 0.8226,1.6706 2.2849,1.7629 3.9235,2.0288 1.9592,0.3179 4.3937,0.7794 6.122,1.53 5.1267,2.2263 5.1885,8.7551 5.4218,10.4079 0.596,4.2229 -0.3886,7.4472 -2.5971,9.5234 -1.4796,1.391 -3.9638,2.2137 -6.0521,2.5245 -5.4024,0.8041 -9.9408,-2.6991 -10.9123,-8.6416 l -0.3525,-2.1562 6.7546,-0.8827 0.2503,1.6816 c 0.263,1.7676 1.5864,3.125 3.3309,3.0462 2.0482,-0.0927 3.005,-1.5404 2.889,-3.3735 -0.0661,-1.0431 -0.1052,-2.2931 -0.3967,-3.3893 -0.6634,-2.4934 -2.3722,-2.7259 -4.537,-3.1778 z"
         style="fill:#ffffff;fill-rule:evenodd"
         id="path54"
         inkscape:connector-curvature="0" />
      <path
         d="m 196.0984,229.9747 6.8847,-1.049 0.9485,7.0469 -6.9008,0.9289 -0.9324,-6.9268 z"
         style="fill:#ffffff;fill-rule:evenodd"
         id="path56"
         inkscape:connector-curvature="0" />
      <path
         d="m 151.8125,238.2625 6.7953,-1.5241 1.4351,6.9641 -6.8198,1.4054 -1.4106,-6.8454 z"
         style="fill:#ffffff;fill-rule:evenodd"
         id="path58"
         inkscape:connector-curvature="0" />
    </g>
    <g
       id="Layer1003">
      <path
         d="m 293.1911,357.4939 c 0,1.412 -0.5628,2.9154 -1.0709,4.3297 l -2.8021,7.7981 -3.685,0.008 2.9707,-7.6385 c -1.451,0.4197 -3.8633,-0.3904 -3.8633,-3.044 l 0,-5.1783 c 0,-1.8763 1.5772,-3.3555 4.3091,-3.3555 2.8834,0 4.1415,2.0917 4.1415,3.7336 l 0,3.3467 z m -3.2185,-2.8091 c -0.003,-0.6366 -0.3457,-1.0473 -0.8834,-1.0544 -0.6693,-0.009 -1.093,0.3222 -1.0969,1.1902 l -0.0147,3.247 c -0.002,0.5534 0.344,1.135 0.9681,1.1305 0.5768,-0.004 1.0512,-0.245 1.0462,-1.1339 l -0.0193,-3.3794 z"
         style="fill:#ffffff;fill-rule:evenodd"
         id="path61"
         inkscape:connector-curvature="0" />
      <path
         d="m 315.922,350.5272 -3.2101,0 -2.6655,1.852 0,3.7193 2.4231,-1.6487 0,15.1424 3.4525,0 0,-19.065 z"
         style="fill:#ffffff;fill-rule:evenodd"
         id="path63"
         inkscape:connector-curvature="0" />
      <path
         d="m 303.564,350.5272 -3.2101,0 -2.6655,1.852 0,3.7193 2.4232,-1.6487 0,15.1424 3.4524,0 0,-19.065 z"
         style="fill:#ffffff;fill-rule:evenodd"
         id="path65"
         inkscape:connector-curvature="0" />
      <path
         d="m 278.8481,350.5272 -3.2102,0 -2.6654,1.852 0,3.7193 2.4231,-1.6487 0,15.1424 3.4525,0 0,-19.065 z"
         style="fill:#ffffff;fill-rule:evenodd"
         id="path67"
         inkscape:connector-curvature="0" />
    </g>
  </g>
</svg>
